<svg width="75" height="23" viewBox="0 0 75 23" fill="none" xmlns="http://www.w3.org/2000/svg">
<path d="M15.0208 0.315561V15.3994C15.0208 17.7345 14.3582 19.5332 13.0328 20.7955C11.7285 22.0577 9.96134 22.6888 7.73138 22.6888C5.39623 22.6888 3.52391 22.0261 2.1144 20.7008C0.704898 19.3754 0.000145296 17.4926 0.000145296 15.0522H5.36468C5.36468 15.9779 5.55401 16.6826 5.93269 17.1665C6.31136 17.6293 6.85833 17.8607 7.5736 17.8607C8.22576 17.8607 8.73066 17.6504 9.08829 17.2296C9.44593 16.8089 9.62475 16.1988 9.62475 15.3994V0.315561H15.0208ZM26.1325 22.6888C24.5126 22.6888 23.0611 22.4258 21.7778 21.8999C20.4945 21.374 19.4637 20.5956 18.6853 19.5648C17.9279 18.5339 17.5282 17.2927 17.4862 15.8411H23.2294C23.3135 16.6616 23.5975 17.2927 24.0814 17.7345C24.5652 18.1553 25.1964 18.3656 25.9747 18.3656C26.7742 18.3656 27.4053 18.1868 27.8681 17.8292C28.3309 17.4505 28.5623 16.9351 28.5623 16.2829C28.5623 15.736 28.373 15.2837 27.9943 14.926C27.6367 14.5684 27.1844 14.2739 26.6374 14.0425C26.1115 13.811 25.3541 13.5481 24.3654 13.2535C22.9348 12.8118 21.7673 12.37 20.8627 11.9282C19.958 11.4864 19.1797 10.8343 18.5275 9.97172C17.8753 9.10919 17.5493 7.98369 17.5493 6.59522C17.5493 4.53356 18.2961 2.9242 19.7897 1.76714C21.2834 0.589048 23.2294 1.10414e-06 25.6276 1.10414e-06C28.068 1.10414e-06 30.0349 0.589048 31.5286 1.76714C33.0223 2.9242 33.8217 4.54407 33.9269 6.62677H28.089C28.0469 5.9115 27.7839 5.35401 27.3001 4.9543C26.8162 4.53356 26.1956 4.32318 25.4383 4.32318C24.7861 4.32318 24.2602 4.502 23.8605 4.85964C23.4608 5.19623 23.2609 5.69061 23.2609 6.34277C23.2609 7.05804 23.5975 7.61553 24.2707 8.01524C24.9439 8.41495 25.9958 8.84622 27.4263 9.30904C28.8569 9.7929 30.0139 10.2557 30.8975 10.6975C31.8021 11.1393 32.5805 11.7809 33.2326 12.6224C33.8848 13.4639 34.2109 14.5473 34.2109 15.8727C34.2109 17.1349 33.8848 18.2815 33.2326 19.3123C32.6015 20.3431 31.6759 21.1636 30.4557 21.7737C29.2355 22.3838 27.7945 22.6888 26.1325 22.6888ZM50.0594 18.555H41.7917L40.4664 22.4679H34.8178L42.8331 0.315561H49.0812L57.0964 22.4679H51.3848L50.0594 18.555ZM48.6709 14.3896L45.9256 6.27966L43.2117 14.3896H48.6709ZM74.2094 0.315561V4.63874H68.34V22.4679H62.9439V4.63874H57.0745V0.315561H74.2094Z" fill="#121212"/>
</svg>
